<?xml version="1.0" encoding="UTF-8"?>
<svg version="1.1" xmlns="http://www.w3.org/2000/svg" width="512" height="512">
<path d="M0 0 C0.93200478 -0.00445784 1.86400955 -0.00891569 2.8242569 -0.01350862 C3.83970833 -0.01332426 4.85515976 -0.01313989 5.90138245 -0.01294994 C7.52949482 -0.01846498 7.52949482 -0.01846498 9.19049835 -0.02409142 C12.83444692 -0.03512107 16.47836696 -0.03897092 20.12232971 -0.04278088 C22.73248383 -0.04904612 25.34263706 -0.05569297 27.95278931 -0.0626936 C35.79065423 -0.08243173 43.6285204 -0.09252133 51.46640396 -0.10142139 C55.16160923 -0.10580906 58.85681307 -0.11117466 62.55201721 -0.11641026 C74.84326378 -0.13342068 87.13450947 -0.14791314 99.42576599 -0.155159 C102.61352032 -0.15706875 105.80127463 -0.1589891 108.98902893 -0.16094494 C110.17741383 -0.16167055 110.17741383 -0.16167055 111.38980651 -0.16241082 C124.21357279 -0.17070478 137.0372456 -0.19603179 149.86097109 -0.22852562 C163.04052865 -0.26164751 176.22003879 -0.27961243 189.39963818 -0.28280324 C196.79390448 -0.28496371 204.18803452 -0.29364409 211.58226013 -0.31926441 C218.54261771 -0.34332633 225.50272697 -0.34676497 232.4631176 -0.33650303 C235.01196037 -0.33600834 237.56081532 -0.34230878 240.10962105 -0.35605907 C260.84282653 -0.46161436 278.0839784 1.47593446 293.83326721 16.47406483 C310.2895379 34.57862111 310.99277629 54.28505843 310.75820565 77.61309338 C310.72657926 81.2978632 310.72398325 84.98266166 310.71807861 88.66754627 C310.70264521 95.61936002 310.66176212 102.57077246 310.61133116 109.52241087 C310.55510689 117.44760431 310.52786876 125.37281868 310.50285399 133.29816246 C310.45083439 149.57708217 310.36310095 165.85560012 310.25123596 182.13422108 C309.52220566 182.21266254 308.79317535 182.29110401 308.04205322 182.37192249 C304.6775196 182.73733349 301.3140136 183.11151063 297.95045471 183.48578358 C296.8041156 183.60896961 295.65777649 183.73215565 294.47669983 183.85907459 C283.81294102 185.05674033 273.56948794 187.2198377 263.25123596 190.13422108 C262.58124573 190.32210194 261.91125549 190.5099828 261.22096252 190.70355701 C232.20241858 199.0734301 206.85206616 215.30816958 185.25123596 236.13422108 C184.4249469 236.89734608 183.59865784 237.66047108 182.74732971 238.44672108 C170.7544501 249.84284424 161.15315259 263.65555397 153.25123596 278.13422108 C152.90753967 278.76118885 152.56384338 279.38815662 152.20973206 280.03412342 C128.60768733 323.68295413 124.0234351 374.19109967 137.53785706 421.78705311 C139.43604266 428.03248651 141.83050658 434.0757836 144.25123596 440.13422108 C144.78445432 441.54080198 145.31420873 442.94870063 145.84059143 444.35785389 C146.10612823 445.0680669 146.37166504 445.77827991 146.64524841 446.51001453 C146.8452243 447.04600269 147.0452002 447.58199085 147.25123596 448.13422108 C127.65746037 448.22787822 108.06373053 448.29830469 88.46977711 448.34146976 C79.37089341 448.36204942 70.27214922 448.39008157 61.1733551 448.43597889 C53.23803425 448.47598801 45.3028145 448.50168726 37.36739558 448.51057506 C33.16997198 448.51576611 28.97283745 448.52786974 24.77550697 448.5571413 C20.81511669 448.58453358 16.85513126 448.59261869 12.89465523 448.5866518 C11.45040426 448.58774151 10.00613806 448.59555263 8.56196976 448.61104298 C-8.36079679 448.78347167 -23.07364773 444.16662973 -35.48362732 432.49091053 C-45.00499938 423.15711353 -52.26614511 410.89049598 -52.87756521 397.26359028 C-52.87935378 396.19966354 -52.88114235 395.1357368 -52.88298512 394.03956985 C-52.88744296 392.80737636 -52.8919008 391.57518287 -52.89649373 390.30565017 C-52.89640444 388.94125107 -52.89621461 387.57685197 -52.89593506 386.21245289 C-52.89923567 384.7606344 -52.90296165 383.30881682 -52.90707654 381.85700041 C-52.91708223 377.86670757 -52.92081102 373.87642977 -52.92346585 369.88612616 C-52.92737314 365.58259769 -52.93695117 361.27908108 -52.94567871 356.97556019 C-52.96543095 346.58224467 -52.97550769 336.18892819 -52.9844065 325.7955986 C-52.98879137 320.89934799 -52.99415766 316.00309847 -52.99939537 311.10684872 C-53.01640629 294.82752011 -53.0309001 278.54819218 -53.03814411 262.26885605 C-53.04005396 258.04534816 -53.0419743 253.82184027 -53.04393005 249.59833241 C-53.04441379 248.54862062 -53.04489753 247.49890884 -53.04539593 246.41738761 C-53.05369493 229.41558072 -53.07903027 212.41384422 -53.11151073 195.41206806 C-53.14459648 177.9508988 -53.16259424 160.48976529 -53.16578835 143.02856451 C-53.16795202 133.227104 -53.17667983 123.42574615 -53.20224953 113.62431622 C-53.2239772 105.27642174 -53.23199676 96.92865486 -53.22228274 88.58073532 C-53.21774406 84.32402907 -53.21959902 80.06758595 -53.23904419 75.81091595 C-53.25671974 71.90779586 -53.25564294 68.00513004 -53.2401469 64.10200483 C-53.23777746 62.69615718 -53.24205972 61.29027771 -53.25397555 59.88447856 C-53.3255666 50.8743105 -52.16091272 43.48556508 -48.74876404 35.13422108 C-48.39143623 34.24814936 -48.03410843 33.36207765 -47.6659525 32.44915527 C-42.54183955 20.34124065 -31.26048566 9.94707416 -19.40892029 4.63812733 C-12.94391819 2.07103425 -7.00151276 0.01561167 0 0 Z " fill="#EBEEF0" transform="translate(52.74876403808594,-0.13422107696533203)"/>
<path d="M0 0 C1.14816193 -0.00101212 1.14816193 -0.00101212 2.31951904 -0.00204468 C13.36982033 0.01346523 23.89974562 0.33338153 34.625 3.25 C35.2957959 3.43224121 35.9665918 3.61448242 36.65771484 3.80224609 C62.96876523 11.11121043 85.30726228 24.09896031 104.625 43.25 C105.48738281 44.09949219 106.34976563 44.94898438 107.23828125 45.82421875 C132.40594147 72.03551401 144.84674466 107.73880028 144.875 143.625 C144.87567474 144.39044128 144.87634949 145.15588257 144.87704468 145.94451904 C144.86153477 156.99482033 144.54161847 167.52474562 141.625 178.25 C141.35163818 179.25619385 141.35163818 179.25619385 141.07275391 180.28271484 C130.23821149 219.28525726 106.21212344 250.75250533 71.07421875 270.890625 C49.11288002 283.10700263 26.34704107 288.48023961 1.25 288.5 C0.48455872 288.50067474 -0.28088257 288.50134949 -1.06951904 288.50204468 C-12.12308436 288.48653019 -22.64492455 288.15727833 -33.375 285.25 C-34.02452637 285.07839355 -34.67405273 284.90678711 -35.34326172 284.72998047 C-72.98560111 274.58748642 -104.93106756 250.63620153 -124.68945312 217.01318359 C-137.68134975 194.34433303 -143.60443004 171.0002476 -143.625 144.875 C-143.62567474 144.10955872 -143.62634949 143.34411743 -143.62704468 142.55548096 C-143.61153477 131.50517967 -143.29161847 120.97525438 -140.375 110.25 C-140.19275879 109.5792041 -140.01051758 108.9084082 -139.82275391 108.21728516 C-129.0381791 69.39461779 -105.16768807 37.97516233 -70.234375 17.83203125 C-48.35179417 5.58995706 -25.00542297 0.01968826 0 0 Z " fill="#2196F3" transform="translate(367.375,223.75)"/>
<path d="M0 0 C6.36819859 2.85894079 10.95885381 7.97015146 13.71484375 14.34765625 C13.95535278 16.49908447 13.95535278 16.49908447 13.94189453 18.84082031 C13.94174347 19.72143127 13.94159241 20.60204224 13.94143677 21.50933838 C13.9311142 22.45113953 13.92079163 23.39294067 13.91015625 24.36328125 C13.90732635 25.33424744 13.90449646 26.30521362 13.90158081 27.30560303 C13.89039667 30.4030801 13.86529517 33.50026675 13.83984375 36.59765625 C13.82981167 38.69921457 13.82068622 40.80077743 13.8125 42.90234375 C13.79046309 48.05089294 13.7559452 53.19922538 13.71484375 58.34765625 C14.97554688 58.32670898 16.23625 58.30576172 17.53515625 58.28417969 C22.23897826 58.21145538 26.94275115 58.16573889 31.64697266 58.12792969 C33.67798232 58.10788789 35.70893481 58.08064678 37.73974609 58.04589844 C40.66908931 57.99705211 43.59766575 57.97461282 46.52734375 57.95703125 C47.42662598 57.93638611 48.3259082 57.91574097 49.25244141 57.89447021 C56.19154825 57.89203327 61.39907347 59.54397405 66.73828125 64.05859375 C71.32462872 69.70536838 73.23291248 74.71525055 73.0234375 82.046875 C72.13890647 88.64166963 68.58286865 92.97699984 63.59375 97.12109375 C58.11657099 100.69663264 53.16288786 100.6145408 46.8203125 100.54296875 C45.87295731 100.54013885 44.92560211 100.53730896 43.94953918 100.53439331 C40.93367709 100.52322812 37.91811559 100.49813014 34.90234375 100.47265625 C32.85351992 100.46262172 30.80469143 100.4534967 28.75585938 100.4453125 C23.74207227 100.42330074 18.72850892 100.38879596 13.71484375 100.34765625 C13.74626465 102.23871094 13.74626465 102.23871094 13.77832031 104.16796875 C13.85104462 108.87179076 13.89676111 113.57556365 13.93457031 118.27978516 C13.95461211 120.31079482 13.98185322 122.34174731 14.01660156 124.37255859 C14.06544789 127.30190181 14.08788718 130.23047825 14.10546875 133.16015625 C14.12611389 134.05943848 14.14675903 134.9587207 14.16802979 135.88525391 C14.17046495 142.81929714 12.5406892 148.07296286 7.96875 153.37109375 C7.41058594 153.81710937 6.85242188 154.263125 6.27734375 154.72265625 C5.44396484 155.41488281 5.44396484 155.41488281 4.59375 156.12109375 C-1.04490881 159.80204774 -6.72273552 160.24044 -13.28515625 159.34765625 C-19.59477792 156.8684963 -24.20165288 152.19464777 -27.40576172 146.27856445 C-28.69038748 141.99707299 -28.53062797 137.89813705 -28.48046875 133.453125 C-28.47763885 132.50576981 -28.47480896 131.55841461 -28.47189331 130.58235168 C-28.46072812 127.56648959 -28.43563014 124.55092809 -28.41015625 121.53515625 C-28.40012172 119.48633242 -28.3909967 117.43750393 -28.3828125 115.38867188 C-28.36080074 110.37488477 -28.32629596 105.36132142 -28.28515625 100.34765625 C-30.22165039 100.38693237 -30.22165039 100.38693237 -32.19726562 100.42700195 C-37.01284272 100.51788812 -41.82834485 100.57504504 -46.64453125 100.62231445 C-48.72408827 100.6473713 -50.80355799 100.68142646 -52.8828125 100.72485352 C-55.88173019 100.7858947 -58.87947803 100.81395467 -61.87890625 100.8359375 C-63.26064026 100.87464714 -63.26064026 100.87464714 -64.67028809 100.91413879 C-71.85684693 100.91722185 -76.63979207 98.88139118 -81.8104248 93.86909485 C-86.67258476 88.38839137 -87.8082085 83.27284449 -87.6640625 76.1328125 C-86.87009118 70.29671403 -83.55630976 66.26598146 -79.22265625 62.47265625 C-75.29060613 59.62819446 -72.68436056 58.09248841 -67.79199219 58.12060547 C-66.91138123 58.12075653 -66.03077026 58.12090759 -65.12347412 58.12106323 C-63.7107724 58.13654709 -63.7107724 58.13654709 -62.26953125 58.15234375 C-61.29856506 58.15517365 -60.32759888 58.15800354 -59.32720947 58.16091919 C-56.2297324 58.17210333 -53.13254575 58.19720483 -50.03515625 58.22265625 C-47.93359793 58.23268833 -45.83203507 58.24181378 -43.73046875 58.25 C-38.58191956 58.27203691 -33.43358712 58.3065548 -28.28515625 58.34765625 C-28.31134033 57.05666016 -28.33752441 55.76566406 -28.36450195 54.43554688 C-28.45538812 49.61996978 -28.51254504 44.80446765 -28.55981445 39.98828125 C-28.5848713 37.90872423 -28.61892646 35.82925451 -28.66235352 33.75 C-28.7233947 30.75108231 -28.75145467 27.75333447 -28.7734375 24.75390625 C-28.79924393 23.83275024 -28.82505035 22.91159424 -28.85163879 21.96252441 C-28.85471525 14.79134966 -26.84597862 9.93507201 -21.77119446 4.8223877 C-15.22621386 -0.88232535 -8.46279578 -2.41587504 0 0 Z " fill="#FEFEFE" transform="translate(375.28515625,288.65234375)"/>
<path d="M0 0 C0.83419584 -0.00594224 1.66839168 -0.01188449 2.52786618 -0.0180068 C5.32748129 -0.03537144 8.12692526 -0.03839644 10.92658997 -0.04138184 C12.93225978 -0.05063895 14.93792607 -0.06068838 16.94358826 -0.07147217 C22.39625978 -0.09771898 27.84888206 -0.11061007 33.30160689 -0.11949348 C36.70885299 -0.12535577 40.11608564 -0.13356559 43.52332497 -0.14250183 C54.18549671 -0.16985279 64.8476377 -0.189185 75.5098421 -0.19690561 C87.81444567 -0.20586456 100.11860461 -0.24094898 112.42307299 -0.2989068 C121.93575137 -0.34215752 131.44830473 -0.36231511 140.96108037 -0.36498785 C146.64171997 -0.36708293 152.32194164 -0.37887547 158.00247765 -0.41462708 C163.34849361 -0.44761826 168.6937782 -0.45188604 174.03985977 -0.43434906 C175.99858498 -0.43280979 177.95734974 -0.44147478 179.91597557 -0.46126556 C197.76588882 -0.63100486 197.76588882 -0.63100486 204.23050404 4.5845108 C210.18446175 11.03230723 211.93799749 16.67706578 211.79695129 25.28088379 C210.67159973 25.75396973 209.54624817 26.22705566 208.38679504 26.71447754 C206.83577302 27.38188702 205.28500578 28.04988882 203.73445129 28.71838379 C203.00161926 29.02453613 202.26878723 29.33068848 201.51374817 29.64611816 C196.97939331 31.61674496 193.00452171 33.82072774 188.94388205 36.65745342 C179.42699231 43.05514207 171.26918643 43.55095556 160.05500793 43.38195801 C158.22341887 43.38761907 156.3918384 43.397173 154.56028748 43.41027832 C149.63242824 43.43401707 144.70641573 43.40209194 139.77875447 43.35808706 C134.6029063 43.32014708 129.42711572 43.32982064 124.25115967 43.33291626 C115.57039566 43.33099637 106.89034266 43.29405942 98.20979309 43.23449707 C88.18640663 43.16601656 78.16387823 43.14684095 68.14028078 43.15526569 C58.47004393 43.16279805 48.80009365 43.14181527 39.12992668 43.10571671 C35.02523466 43.09051725 30.92066949 43.08410634 26.81595039 43.08462143 C21.98512918 43.08348847 17.15507861 43.05697422 12.32448196 43.01106262 C10.55567129 42.99809591 8.78677575 42.99350211 7.01792336 42.99803543 C-2.78775534 43.01716069 -10.38036443 43.03137307 -17.69929409 35.80319023 C-22.49256729 30.51085569 -23.68773147 25.81053076 -23.51164246 18.83947754 C-22.69100587 12.03546536 -19.17088843 7.72744429 -13.98429871 3.50744629 C-9.35573598 0.32023424 -5.56317054 -0.01236229 0 0 Z " fill="#90A4AE" transform="translate(87.20304870605469,170.7191162109375)"/>
<path d="M0 0 C0.96990875 -0.00852997 1.9398175 -0.01705994 2.93911743 -0.02584839 C3.99168732 -0.02494202 5.0442572 -0.02403564 6.12872314 -0.02310181 C7.80525467 -0.03317764 7.80525467 -0.03317764 9.51565552 -0.04345703 C13.21126755 -0.06245712 16.90669812 -0.06636247 20.60235596 -0.06851196 C23.17439855 -0.07493914 25.7464404 -0.08166744 28.31848145 -0.08868408 C33.7119548 -0.10066236 39.10535631 -0.10445011 44.49884033 -0.10317993 C50.7160784 -0.10197999 56.9329685 -0.12305535 63.15011859 -0.15466726 C69.14783622 -0.18406743 75.14536634 -0.19115338 81.14316559 -0.18996048 C83.68679473 -0.19231656 86.2304266 -0.2011404 88.7740097 -0.21662521 C92.33785085 -0.23628718 95.90080427 -0.23044498 99.46466064 -0.21841431 C100.50913361 -0.22965332 101.55360657 -0.24089233 102.62973022 -0.25247192 C110.19825667 -0.18776242 116.2206744 1.36648379 122.31719971 5.97836304 C122.78770752 6.52750366 123.25821533 7.07664429 123.74298096 7.64242554 C124.49128174 8.4584021 124.49128174 8.4584021 125.25469971 9.29086304 C126.05548096 11.26742554 126.05548096 11.26742554 125.43829346 14.07992554 C123.42686485 18.71643895 120.82821489 22.92118624 118.22344971 27.24398804 C116.32971948 30.55959825 114.8718956 33.98902603 113.41998291 37.51889038 C112.75323296 39.13505753 112.75323296 39.13505753 112.07301331 40.78387451 C111.73722763 41.60344635 111.40144196 42.42301819 111.05548096 43.26742554 C96.23415267 43.3845044 81.41288603 43.47253333 66.59118843 43.5264864 C59.70835995 43.55220966 52.82581969 43.58724636 45.94317627 43.6446228 C39.29718572 43.69999975 32.65141519 43.72887409 26.00518417 43.74181175 C23.47351249 43.75102807 20.94185659 43.7690254 18.41031265 43.79607582 C14.85564468 43.83253739 11.30220131 43.83736346 7.74737549 43.83505249 C6.70799332 43.85302887 5.66861115 43.87100525 4.59773254 43.88952637 C-2.57956166 43.83925824 -7.90957878 42.20728118 -13.94451904 38.26742554 C-16.19842529 35.91586304 -16.19842529 35.91586304 -17.50701904 33.64242554 C-17.96205811 32.88703491 -18.41709717 32.13164429 -18.88592529 31.35336304 C-21.63666992 25.93307657 -21.99877827 19.88112133 -20.29608154 14.04476929 C-17.67417242 8.22950931 -13.44788834 3.87606519 -7.63611984 1.20747948 C-4.89481577 0.25006644 -2.88829851 0.01153662 0 0 Z " fill="#91A4AE" transform="translate(84.94451904296875,255.73257446289063)"/>
<path d="M0 0 C1.35181618 -0.01226624 1.35181618 -0.01226624 2.73094177 -0.02478027 C5.71832621 -0.04962306 8.70566302 -0.06615092 11.69311523 -0.08056641 C13.22585744 -0.08855192 13.22585744 -0.08855192 14.78956413 -0.09669876 C20.20214971 -0.1234304 25.61471226 -0.14280195 31.02734375 -0.15722656 C35.49793042 -0.17054566 39.96805848 -0.19836111 44.43847656 -0.23925781 C49.84309833 -0.28869888 55.24730524 -0.31336231 60.65214348 -0.32045364 C62.70653751 -0.32714795 64.76092296 -0.34232228 66.81518745 -0.36634445 C87.86799995 -0.59840908 87.86799995 -0.59840908 95.18920898 5.19287109 C97.44311523 7.57958984 97.44311523 7.57958984 98.75170898 9.88037109 C99.20674805 10.64736328 99.66178711 11.41435547 100.13061523 12.20458984 C102.96286355 17.52420016 103.09362419 22.77679678 101.54077148 28.64208984 C99.36506732 34.11854179 96.26988758 38.13040672 91.18920898 41.19287109 C86.01112046 43.34301059 81.42354523 43.4892443 75.91430664 43.48339844 C74.54238411 43.49347427 74.54238411 43.49347427 73.14274597 43.50375366 C70.12953203 43.52269824 67.11654122 43.52665598 64.10327148 43.52880859 C62.00108754 43.53523859 59.89890449 43.5419671 57.79672241 43.54898071 C53.393676 43.56094435 48.990708 43.56466243 44.58764648 43.56347656 C38.95648056 43.56327334 33.32581912 43.59058324 27.69477272 43.62502098 C23.35378731 43.64729953 19.01292317 43.65131382 14.67188644 43.65025711 C12.59633011 43.65261132 10.52077035 43.66142466 8.44527054 43.67692184 C5.53745805 43.69660236 2.63073182 43.69073567 -0.27709961 43.67871094 C-1.12723129 43.68994995 -1.97736298 43.70118896 -2.85325623 43.71276855 C-9.53066826 43.64289368 -14.70368861 41.82011212 -19.83422852 37.48193359 C-24.60856004 31.60371038 -26.3841593 26.39994922 -26.17797852 18.78271484 C-25.38348419 13.17899426 -22.91524001 8.94719284 -18.58032227 5.33349609 C-12.29794713 1.02909551 -7.57995842 0.0378783 0 0 Z " fill="#90A4AE" transform="translate(89.810791015625,84.80712890625)"/>
</svg>
