<svg width="162" height="33" viewBox="0 0 162 33" fill="none" xmlns="http://www.w3.org/2000/svg">
<path d="M21.0781 8.125C20.7448 7.38542 20.4167 6.73958 20.0938 6.1875C19.7708 5.625 19.349 5.04167 18.8281 4.4375C18.3073 3.83333 17.75 3.33854 17.1562 2.95312C16.5625 2.56771 15.8333 2.25 14.9688 2C14.1042 1.75 13.151 1.625 12.1094 1.625C10.9844 1.625 9.96354 1.85417 9.04688 2.3125C8.13021 2.77083 7.375 3.36979 6.78125 4.10938C6.19792 4.84896 5.70312 5.70833 5.29688 6.6875C4.90104 7.65625 4.61979 8.63542 4.45312 9.625C4.28646 10.6042 4.20312 11.599 4.20312 12.6094C4.20312 13.6094 4.29167 14.6042 4.46875 15.5938C4.64583 16.5729 4.9375 17.5469 5.34375 18.5156C5.76042 19.4844 6.27083 20.3333 6.875 21.0625C7.47917 21.7917 8.23958 22.3854 9.15625 22.8438C10.0833 23.2917 11.1094 23.5156 12.2344 23.5156C14.526 23.5156 16.1198 23.0052 17.0156 21.9844V15.6406C17.0156 15.4219 16.9271 15.2292 16.75 15.0625C16.5729 14.8854 16.3698 14.75 16.1406 14.6562C15.9115 14.5625 15.6042 14.4792 15.2188 14.4062C14.8438 14.3229 14.5365 14.2656 14.2969 14.2344C14.0573 14.2031 13.7552 14.1719 13.3906 14.1406C13.349 13.974 13.3281 13.849 13.3281 13.7656C13.3281 13.6927 13.349 13.5729 13.3906 13.4062C15.7448 13.4896 17.5573 13.5312 18.8281 13.5312C20.1198 13.5312 21.9323 13.4896 24.2656 13.4062C24.3177 13.6146 24.3438 13.7344 24.3438 13.7656C24.3438 13.8073 24.3177 13.9323 24.2656 14.1406C23.901 14.1719 23.599 14.2031 23.3594 14.2344C23.1198 14.2656 22.8073 14.3229 22.4219 14.4062C22.0469 14.4792 21.7448 14.5625 21.5156 14.6562C21.2969 14.75 21.099 14.8854 20.9219 15.0625C20.7448 15.2292 20.6562 15.4219 20.6562 15.6406V17.9531C20.6562 19.9323 20.8906 21.5521 21.3594 22.8125C19.6406 23.4479 18.1146 23.9115 16.7812 24.2031C15.4479 24.4948 13.9323 24.6406 12.2344 24.6406C11.224 24.6406 10.2083 24.5365 9.1875 24.3281C8.16667 24.1198 7.09375 23.7292 5.96875 23.1562C4.85417 22.5833 3.86979 21.8646 3.01562 21C2.17188 20.1354 1.46875 18.9792 0.90625 17.5312C0.354167 16.0833 0.078125 14.4427 0.078125 12.6094C0.078125 11.2865 0.21875 10.0625 0.5 8.9375C0.791667 7.80208 1.17708 6.82812 1.65625 6.01562C2.13542 5.20312 2.70312 4.47396 3.35938 3.82812C4.02604 3.18229 4.71875 2.65625 5.4375 2.25C6.15625 1.84375 6.91146 1.51042 7.70312 1.25C8.50521 0.979167 9.26562 0.791667 9.98438 0.6875C10.7031 0.572917 11.4115 0.515625 12.1094 0.515625C13.276 0.515625 14.3854 0.588542 15.4375 0.734375C16.5 0.869792 17.5573 1.04167 18.6094 1.25C19.6615 1.44792 20.4948 1.58333 21.1094 1.65625C20.9531 2.125 20.875 2.78646 20.875 3.64062C20.875 5.05729 21.1302 6.4375 21.6406 7.78125C21.5781 7.96875 21.3906 8.08333 21.0781 8.125ZM37.5156 0.796875C37.6719 0.682292 37.8385 0.609375 38.0156 0.578125L46.5625 21.9219C46.6667 22.1823 46.8385 22.4062 47.0781 22.5938C47.3177 22.7708 47.6146 22.9115 47.9688 23.0156C48.3333 23.1094 48.6458 23.1823 48.9062 23.2344C49.1771 23.276 49.5052 23.3177 49.8906 23.3594C49.9323 23.526 49.9531 23.6667 49.9531 23.7812C49.9531 23.9062 49.9323 24.0208 49.8906 24.125C47.6406 24.0417 45.9583 24 44.8438 24C43.6354 24 41.8854 24.0417 39.5938 24.125C39.5521 24 39.5312 23.875 39.5312 23.75C39.5312 23.6146 39.5521 23.4844 39.5938 23.3594C41.6979 23.1302 42.75 22.7344 42.75 22.1719C42.75 21.9948 42.7292 21.8125 42.6875 21.625L40.4219 15.8125C39.7344 15.7917 38.8073 15.7812 37.6406 15.7812C37.0885 15.7812 35.6562 15.8021 33.3438 15.8438L30.9531 21.9219V22.1094C30.9531 22.2135 30.9688 22.3125 31 22.4062C31.0417 22.5 31.1042 22.5833 31.1875 22.6562C31.2812 22.7292 31.3698 22.7917 31.4531 22.8438C31.5365 22.8958 31.651 22.9479 31.7969 23C31.9531 23.0417 32.0833 23.0781 32.1875 23.1094C32.3021 23.1302 32.4531 23.1562 32.6406 23.1875C32.8385 23.2188 32.9896 23.2448 33.0938 23.2656C33.1979 23.276 33.349 23.2917 33.5469 23.3125C33.7552 23.3333 33.901 23.349 33.9844 23.3594C34.026 23.526 34.0469 23.6667 34.0469 23.7812C34.0469 23.8438 34.026 23.9583 33.9844 24.125C31.651 24.0417 30.3385 24 30.0469 24C29.4844 24 28.0365 24.0417 25.7031 24.125C25.6615 24 25.6406 23.875 25.6406 23.75C25.6406 23.6146 25.6615 23.4844 25.7031 23.3594C27.8698 23.1094 29.1042 22.5781 29.4062 21.7656L36.125 4.82812L35.7812 3.90625C36.375 3.51042 36.7865 3.08333 37.0156 2.625C37.2552 2.16667 37.4219 1.55729 37.5156 0.796875ZM37.6406 14.5625C38.599 14.5625 39.3542 14.5521 39.9062 14.5312L36.9375 6.84375H36.875L33.8906 14.5C34.8698 14.5417 36.1198 14.5625 37.6406 14.5625ZM51.8125 1.03125C54.1458 1.11458 55.9688 1.15625 57.2812 1.15625C66.2188 1.10417 71.1667 1.0625 72.125 1.03125C72.2604 2.07292 72.526 3.0625 72.9219 4C73.3177 4.92708 73.8229 5.91667 74.4375 6.96875C74.3542 7.14583 74.1719 7.28646 73.8906 7.39062C73.5156 6.68229 73.0625 6.05208 72.5312 5.5C72 4.94792 71.3281 4.42708 70.5156 3.9375C69.7135 3.44792 68.7083 3.04688 67.5 2.73438C66.3021 2.42188 64.9323 2.21354 63.3906 2.10938H59.0781C58.9427 6.51562 58.875 9.83333 58.875 12.0625H63.3281C63.6302 12.0625 63.9115 12.0417 64.1719 12C64.4427 11.9479 64.6927 11.8646 64.9219 11.75C65.151 11.625 65.3542 11.5104 65.5312 11.4062C65.7188 11.2917 65.9062 11.125 66.0938 10.9062C66.2812 10.6771 66.4375 10.4896 66.5625 10.3438C66.6875 10.1875 66.8385 9.95312 67.0156 9.64062C67.1927 9.32812 67.3281 9.08333 67.4219 8.90625C67.5156 8.72917 67.6562 8.45312 67.8438 8.07812C68.0417 7.70312 68.1927 7.42188 68.2969 7.23438C68.6198 7.35938 68.8177 7.49479 68.8906 7.64062C68.4531 8.41146 68.0833 9.26562 67.7812 10.2031C67.4792 11.1406 67.3281 11.9219 67.3281 12.5469C67.3281 14.026 67.849 15.6562 68.8906 17.4375C68.8073 17.6042 68.6094 17.7448 68.2969 17.8594C68.1823 17.651 68.0208 17.3542 67.8125 16.9688C67.6146 16.5729 67.4583 16.2708 67.3438 16.0625C67.2292 15.8542 67.0729 15.5885 66.875 15.2656C66.6771 14.9427 66.5 14.6927 66.3438 14.5156C66.1979 14.3385 66.0052 14.1406 65.7656 13.9219C65.5365 13.7031 65.3073 13.5417 65.0781 13.4375C64.849 13.3229 64.5833 13.2292 64.2812 13.1562C63.9896 13.0729 63.6719 13.0312 63.3281 13.0312H58.875C58.875 14.6875 58.9323 18.026 59.0469 23.0469H64.0312C65.5729 22.9427 66.9427 22.7344 68.1406 22.4219C69.349 22.1094 70.3542 21.7083 71.1562 21.2188C71.9688 20.7292 72.6406 20.2083 73.1719 19.6562C73.7031 19.1042 74.1562 18.474 74.5312 17.7656C74.8125 17.8698 74.9948 18.0052 75.0781 18.1719C75.026 18.276 74.8906 18.526 74.6719 18.9219C74.4531 19.3177 74.3073 19.5885 74.2344 19.7344C74.1615 19.8698 74.0365 20.1146 73.8594 20.4688C73.6927 20.8125 73.5677 21.0938 73.4844 21.3125C73.401 21.5208 73.3021 21.7865 73.1875 22.1094C73.0833 22.4323 72.9948 22.75 72.9219 23.0625C72.8594 23.3646 72.8073 23.6771 72.7656 24H59.0469C56.224 24 53.8021 24.0312 51.7812 24.0938C51.7396 23.9688 51.7188 23.8646 51.7188 23.7812C51.7188 23.7083 51.7396 23.5677 51.7812 23.3594C52.2604 23.3177 52.6458 23.276 52.9375 23.2344C53.2396 23.1823 53.6042 23.1042 54.0312 23C54.4688 22.8958 54.8021 22.75 55.0312 22.5625C55.2604 22.3646 55.3802 22.1302 55.3906 21.8594C55.5156 18.599 55.5781 15.3125 55.5781 12C55.5781 8.625 55.526 5.71354 55.4219 3.26562C55.4115 2.99479 55.2917 2.76562 55.0625 2.57812C54.8333 2.38021 54.5 2.22917 54.0625 2.125C53.6354 2.02083 53.2708 1.94792 52.9688 1.90625C52.6771 1.85417 52.2917 1.80729 51.8125 1.76562C51.7708 1.57812 51.75 1.44792 51.75 1.375C51.75 1.3125 51.7708 1.19792 51.8125 1.03125ZM76.9375 1.03125C78.6458 1.11458 80.8021 1.15625 83.4062 1.15625C90.7708 10.3854 94.7292 15.3021 95.2812 15.9062C95.8333 16.5 96.1094 16.7969 96.1094 16.7969H96.2344C96.276 14.7969 96.2969 13.1875 96.2969 11.9688C96.2969 9.5625 96.2448 6.73438 96.1406 3.48438C96.1198 2.54688 94.9635 1.97396 92.6719 1.76562C92.6302 1.53646 92.6094 1.39583 92.6094 1.34375C92.6094 1.26042 92.6302 1.15625 92.6719 1.03125C94.349 1.09375 95.8333 1.125 97.125 1.125C97.9583 1.125 99.3542 1.09375 101.312 1.03125C101.354 1.15625 101.375 1.26042 101.375 1.34375C101.375 1.51042 101.354 1.65104 101.312 1.76562C99.0312 1.97396 97.8802 2.54688 97.8594 3.48438C97.7344 6.74479 97.6719 9.95833 97.6719 13.125C97.6719 17.9688 97.724 21.6146 97.8281 24.0625L97.5469 24.0938L82.0156 4.98438H81.8594C81.7969 7.68229 81.7656 10.4062 81.7656 13.1562C81.7656 15.5729 81.8177 18.3958 81.9219 21.625C81.9427 22.5729 83.0938 23.151 85.375 23.3594C85.4271 23.5365 85.4531 23.6771 85.4531 23.7812C85.4531 23.8854 85.4271 23.9896 85.375 24.0938C83.7188 24.0312 82.2396 24 80.9375 24C80.1042 24 78.7083 24.0312 76.75 24.0938C76.6979 23.9896 76.6719 23.8854 76.6719 23.7812C76.6719 23.6042 76.6979 23.4635 76.75 23.3594C79.0521 23.1406 80.2031 22.5625 80.2031 21.625C80.3281 18.375 80.3906 15.1667 80.3906 12C80.3906 8.5625 80.349 5.57812 80.2656 3.04688C79.3906 2.28646 78.2812 1.85938 76.9375 1.76562C76.875 1.63021 76.8438 1.51042 76.8438 1.40625C76.8438 1.25 76.875 1.125 76.9375 1.03125ZM118.594 7.64062C118.198 5.73438 117.469 4.25521 116.406 3.20312C115.354 2.15104 114.089 1.625 112.609 1.625C111.161 1.625 110.036 1.96875 109.234 2.65625C108.443 3.34375 108.047 4.26042 108.047 5.40625C108.047 6.04167 108.104 6.56771 108.219 6.98438C108.333 7.40104 108.568 7.80729 108.922 8.20312C109.276 8.58854 109.792 8.93229 110.469 9.23438C111.146 9.52604 112.031 9.80729 113.125 10.0781C113.719 10.224 114.234 10.3594 114.672 10.4844C115.12 10.6094 115.609 10.7812 116.141 11C116.682 11.2188 117.146 11.4531 117.531 11.7031C117.927 11.9531 118.318 12.2656 118.703 12.6406C119.099 13.0052 119.417 13.4115 119.656 13.8594C119.906 14.3073 120.104 14.8385 120.25 15.4531C120.406 16.0573 120.484 16.7188 120.484 17.4375C120.484 18.3958 120.307 19.2812 119.953 20.0938C119.599 20.8958 119.135 21.5729 118.562 22.125C117.99 22.6771 117.328 23.1458 116.578 23.5312C115.828 23.9167 115.068 24.1979 114.297 24.375C113.526 24.5521 112.76 24.6406 112 24.6406C109.688 24.6406 107.224 24.0417 104.609 22.8438C104.661 21.7188 104.688 21.026 104.688 20.7656C104.688 19.0677 104.547 17.375 104.266 15.6875C104.38 15.6146 104.495 15.5781 104.609 15.5781C104.755 15.5781 104.885 15.6146 105 15.6875C105.219 17.0312 105.578 18.2188 106.078 19.25C106.589 20.2812 107.172 21.099 107.828 21.7031C108.484 22.2969 109.161 22.7448 109.859 23.0469C110.568 23.3385 111.281 23.4844 112 23.4844C113.635 23.4844 114.891 23.0625 115.766 22.2188C116.651 21.3646 117.094 20.2396 117.094 18.8438C117.094 17.4375 116.766 16.3802 116.109 15.6719C115.464 14.9531 114.224 14.3698 112.391 13.9219C110.099 13.349 108.307 12.5052 107.016 11.3906C105.734 10.2656 105.094 8.78125 105.094 6.9375C105.094 5.96875 105.25 5.10417 105.562 4.34375C105.885 3.57292 106.297 2.95833 106.797 2.5C107.307 2.03125 107.901 1.64583 108.578 1.34375C109.255 1.03125 109.922 0.817708 110.578 0.703125C111.245 0.578125 111.922 0.515625 112.609 0.515625C114.672 0.515625 116.818 0.994792 119.047 1.95312C118.984 2.56771 118.953 3.20833 118.953 3.875C118.953 5.4375 119.078 6.69271 119.328 7.64062C119.193 7.69271 119.078 7.71875 118.984 7.71875C118.88 7.71875 118.75 7.69271 118.594 7.64062ZM134.766 0.796875C134.922 0.682292 135.089 0.609375 135.266 0.578125L143.812 21.9219C143.917 22.1823 144.089 22.4062 144.328 22.5938C144.568 22.7708 144.865 22.9115 145.219 23.0156C145.583 23.1094 145.896 23.1823 146.156 23.2344C146.427 23.276 146.755 23.3177 147.141 23.3594C147.182 23.526 147.203 23.6667 147.203 23.7812C147.203 23.9062 147.182 24.0208 147.141 24.125C144.891 24.0417 143.208 24 142.094 24C140.885 24 139.135 24.0417 136.844 24.125C136.802 24 136.781 23.875 136.781 23.75C136.781 23.6146 136.802 23.4844 136.844 23.3594C138.948 23.1302 140 22.7344 140 22.1719C140 21.9948 139.979 21.8125 139.938 21.625L137.672 15.8125C136.984 15.7917 136.057 15.7812 134.891 15.7812C134.339 15.7812 132.906 15.8021 130.594 15.8438L128.203 21.9219V22.1094C128.203 22.2135 128.219 22.3125 128.25 22.4062C128.292 22.5 128.354 22.5833 128.438 22.6562C128.531 22.7292 128.62 22.7917 128.703 22.8438C128.786 22.8958 128.901 22.9479 129.047 23C129.203 23.0417 129.333 23.0781 129.438 23.1094C129.552 23.1302 129.703 23.1562 129.891 23.1875C130.089 23.2188 130.24 23.2448 130.344 23.2656C130.448 23.276 130.599 23.2917 130.797 23.3125C131.005 23.3333 131.151 23.349 131.234 23.3594C131.276 23.526 131.297 23.6667 131.297 23.7812C131.297 23.8438 131.276 23.9583 131.234 24.125C128.901 24.0417 127.589 24 127.297 24C126.734 24 125.286 24.0417 122.953 24.125C122.911 24 122.891 23.875 122.891 23.75C122.891 23.6146 122.911 23.4844 122.953 23.3594C125.12 23.1094 126.354 22.5781 126.656 21.7656L133.375 4.82812L133.031 3.90625C133.625 3.51042 134.036 3.08333 134.266 2.625C134.505 2.16667 134.672 1.55729 134.766 0.796875ZM134.891 14.5625C135.849 14.5625 136.604 14.5521 137.156 14.5312L134.188 6.84375H134.125L131.141 14.5C132.12 14.5417 133.37 14.5625 134.891 14.5625ZM150.141 1.03125C152.495 1.11458 154.344 1.15625 155.688 1.15625C156.958 1.15625 158.771 1.11458 161.125 1.03125C161.167 1.19792 161.188 1.3125 161.188 1.375C161.188 1.48958 161.167 1.61979 161.125 1.76562C160.646 1.80729 160.255 1.85417 159.953 1.90625C159.651 1.94792 159.281 2.02083 158.844 2.125C158.406 2.22917 158.073 2.38021 157.844 2.57812C157.615 2.76562 157.5 2.99479 157.5 3.26562C157.49 3.94271 157.474 5.53125 157.453 8.03125C157.443 10.5312 157.427 12.8698 157.406 15.0469C157.385 16.7865 157.354 18.2135 157.312 19.3281C157.281 20.4323 157.208 21.6615 157.094 23.0156C156.99 24.3594 156.839 25.4375 156.641 26.25C156.453 27.0729 156.193 27.9115 155.859 28.7656C155.526 29.6302 155.12 30.2917 154.641 30.75C154.172 31.2083 153.594 31.5833 152.906 31.875C152.219 32.1667 151.427 32.3125 150.531 32.3125C149.021 32.3125 147.849 31.9427 147.016 31.2031C146.182 30.4635 145.766 29.5885 145.766 28.5781C145.766 27.7135 145.995 27.0417 146.453 26.5625C146.911 26.0938 147.516 25.8594 148.266 25.8594C148.88 25.8594 149.406 26.026 149.844 26.3594C150.281 26.6927 150.5 27.1875 150.5 27.8438C150.5 28.1979 150.411 28.5104 150.234 28.7812C150.057 29.0625 149.859 29.2656 149.641 29.3906C149.432 29.526 149.24 29.6458 149.062 29.75C148.885 29.8646 148.797 29.9427 148.797 29.9844C148.797 30.3802 148.948 30.7031 149.25 30.9531C149.562 31.2031 149.99 31.3281 150.531 31.3281C151.115 31.3281 151.604 31.2188 152 31C152.406 30.7812 152.734 30.474 152.984 30.0781C153.245 29.6823 153.443 29.1302 153.578 28.4219C153.714 27.7135 153.802 26.9583 153.844 26.1562C153.896 25.3542 153.922 24.349 153.922 23.1406C153.922 12.849 153.87 6.22396 153.766 3.26562C153.755 2.99479 153.635 2.76562 153.406 2.57812C153.177 2.38021 152.844 2.22917 152.406 2.125C151.969 2.02083 151.599 1.94792 151.297 1.90625C151.005 1.85417 150.62 1.80729 150.141 1.76562C150.099 1.57812 150.078 1.44792 150.078 1.375C150.078 1.27083 150.099 1.15625 150.141 1.03125Z" fill="white"/>
</svg>
